<?xml version="1.0" encoding="utf-8"?>
<!-- Generator: Adobe Illustrator 16.2.0, SVG Export Plug-In . SVG Version: 6.00 Build 0)  -->
<!DOCTYPE svg PUBLIC "-//W3C//DTD SVG 1.1//EN" "http://www.w3.org/Graphics/SVG/1.1/DTD/svg11.dtd">
<svg version="1.1" id="Capa_1" xmlns="http://www.w3.org/2000/svg" xmlns:xlink="http://www.w3.org/1999/xlink" x="0px" y="0px"
	 width="300px" height="150px" viewBox="0 0 300 150" enable-background="new 0 0 300 150" xml:space="preserve">
<path fill="#1AA1B7" d="M196.563,64.262c0-21.993-15.25-40.406-35.825-45.269v-4.881c0-5.938-4.788-10.744-10.737-10.744
	c-5.95,0-10.738,4.806-10.738,10.744v4.881c-20.575,4.863-35.825,23.281-35.825,45.269v39.394l-14.325,14.313v7.162h121.774v-7.162
	l-14.324-14.313V64.262z"/>
<path fill="#1AA1B7" d="M150,146.631c1.006,0,1.932-0.063,2.875-0.287c4.637-0.926,8.519-4.15,10.3-8.463
	c0.718-1.7,1.156-3.568,1.156-5.581h-28.663C135.668,140.182,142.119,146.631,150,146.631z"/>
<circle fill="#FC3B00" stroke="#FFFFFF" stroke-width="2" stroke-miterlimit="10" cx="186.5" cy="42.5" r="25"/>
</svg>
