<?xml version="1.0" encoding="utf-8"?>
<!-- Generator: Adobe Illustrator 16.2.0, SVG Export Plug-In . SVG Version: 6.00 Build 0)  -->
<!DOCTYPE svg PUBLIC "-//W3C//DTD SVG 1.1//EN" "http://www.w3.org/Graphics/SVG/1.1/DTD/svg11.dtd">
<svg version="1.1" id="Слой_1" xmlns="http://www.w3.org/2000/svg" xmlns:xlink="http://www.w3.org/1999/xlink" x="0px" y="0px"
	 width="242.797px" height="80.495px" viewBox="0 0 242.797 80.495" enable-background="new 0 0 242.797 80.495"
	 xml:space="preserve">
<rect x="71.997" y="10.409" fill="#4795F4" width="69.561" height="26.571"/>
<path fill="none" stroke="#FFFFFF" stroke-width="3" stroke-miterlimit="10" d="M38.216,10.533l-3.403,2.734
	c4,0,7.621,1.621,10.243,4.243c2.621,2.621,4.242,6.242,4.242,10.242c0,4-1.621,7.621-4.242,10.242
	c-2.622,2.622-6.243,4.243-10.243,4.243c-4,0-7.621-1.621-10.242-4.243c-2.621-2.621-4.243-6.242-4.243-10.242"/>
<path fill="#FFFFFF" d="M34.813,47.333c-13.068,0-23.662,10.593-23.662,23.661h47.323C58.474,57.927,47.881,47.333,34.813,47.333z"
	/>
<polyline fill="none" stroke="#FFFFFF" stroke-width="3" stroke-miterlimit="10" points="26.776,20.256 34.436,29.118 
	42.573,29.118 "/>
<circle fill="#4795F4" cx="45.884" cy="28.965" r="1.007"/>
<circle fill="#4795F4" cx="24.601" cy="17.396" r="1.007"/>
<circle fill="#4795F4" cx="29.449" cy="14.703" r="1.007"/>
<circle fill="#4795F4" cx="21.793" cy="22.287" r="1.007"/>
<g>
	<path fill="#FFFFFF" d="M82.279,19.186h-4.314v-2.947h11.959v2.947H85.61v12.173h-3.331V19.186z"/>
	<path fill="#FFFFFF" d="M96.586,16.238h2.755l6.578,15.12h-3.759l-1.302-3.203h-5.873l-1.26,3.203h-3.673L96.586,16.238z
		 M97.867,20.638l-1.836,4.699h3.694L97.867,20.638z"/>
	<path fill="#FFFFFF" d="M114.908,19.933c-0.534-0.684-1.602-1.003-2.414-1.003c-0.939,0-2.242,0.426-2.242,1.559
		c0,2.755,6.961,0.982,6.961,6.278c0,3.375-2.711,4.977-5.83,4.977c-1.943,0-3.651-0.577-5.083-1.901l2.371-2.605
		c0.683,0.896,1.794,1.43,2.904,1.43c1.089,0,2.307-0.512,2.307-1.58c0-2.777-7.091-1.282-7.091-6.321
		c0-3.225,2.798-4.912,5.767-4.912c1.708,0,3.353,0.449,4.635,1.581L114.908,19.933z"/>
	<path fill="#FFFFFF" d="M119.818,16.238h3.332v6.279l5.872-6.279h4.357l-6.727,7.026l7.304,8.094H129.3l-6.15-7.175v7.175h-3.332
		V16.238z"/>
</g>
<g>
	<path fill="#FFFFFF" d="M72.236,46.591H81.4c4.305,0,8.991,0.902,8.991,6.249c0,2.742-1.7,4.617-4.235,5.415v0.069
		c3.229,0.417,5.381,2.812,5.381,6.005c0,5.138-4.86,6.838-9.234,6.838H72.236V46.591z M77.651,56.415h3.923
		c1.666,0,3.401-0.694,3.401-2.673c0-2.048-1.944-2.569-3.645-2.569h-3.68V56.415z M77.651,66.586h4.86
		c1.701,0,3.61-0.729,3.61-2.881c0-2.326-2.604-2.708-4.374-2.708h-4.096V66.586z"/>
	<path fill="#FFFFFF" d="M115.453,61.691c0,5.797-3.541,10.103-10.345,10.103c-6.839,0-10.38-4.305-10.38-10.103v-15.1h5.416v14.892
		c0,3.02,2.083,5.311,4.964,5.311c2.846,0,4.929-2.291,4.929-5.311V46.591h5.416V61.691z"/>
	<path fill="#FFFFFF" d="M120.379,46.591h5.415v24.577h-5.415V46.591z"/>
	<path fill="#FFFFFF" d="M130.931,46.591h5.416v19.579h10.032v4.998h-15.448V46.591z"/>
	<path fill="#FFFFFF" d="M149.362,46.591h8.123c7.916,0,14.545,3.367,14.545,12.358c0,7.95-6.49,12.219-13.815,12.219h-8.852V46.591
		z M154.777,66.169h2.812c5.033,0,8.818-1.91,8.818-7.498c0-4.826-3.854-7.082-8.437-7.082h-3.193V66.169z"/>
	<path fill="#FFFFFF" d="M175.915,46.591h16.698v4.999h-11.281v4.582h10.656v4.999h-10.656v4.999h11.906v4.998h-17.323V46.591z"/>
	<path fill="#FFFFFF" d="M197.574,46.591h9.512c5.035,0,9.271,1.735,9.271,7.463c0,3.437-1.842,6.109-5.313,6.735l6.249,10.378
		h-6.492l-5.138-9.823h-2.672v9.823h-5.417V46.591z M202.991,56.762h3.192c1.979,0,4.549-0.069,4.549-2.742
		c0-2.465-2.224-2.847-4.201-2.847h-3.54V56.762z"/>
</g>
</svg>
